<svg width="24" height="25" viewBox="0 0 24 25" fill="none" xmlns="http://www.w3.org/2000/svg">
<path fill-rule="evenodd" clip-rule="evenodd" d="M4.75999 2.41741C5.21199 1.2814 6.83899 1.3404 7.20699 2.5064L8.94299 8.00441H15.057L16.793 2.5064C17.161 1.3404 18.788 1.2814 19.241 2.4164L21.715 8.63441L22.671 11.0384C22.8225 11.4191 22.8533 11.8372 22.7594 12.236C22.6655 12.6349 22.4514 12.9952 22.146 13.2684L12.666 21.7494C12.4827 21.9133 12.2454 22.0039 11.9995 22.0039C11.7536 22.0039 11.5163 21.9133 11.333 21.7494L1.85299 13.2684C1.54776 12.9951 1.33382 12.6347 1.2401 12.2359C1.14638 11.837 1.17741 11.419 1.32899 11.0384L2.28599 8.63441L4.75999 2.41741ZM14.425 10.0044H9.57499L12 17.6844L14.425 10.0044ZM9.94799 17.8264L7.47799 10.0044H3.89299L3.18699 11.7774L9.94699 17.8264H9.94799ZM4.68799 8.00441H6.84599L5.89199 4.98141L4.68899 8.00441H4.68799ZM14.052 17.8264L16.522 10.0044H20.107L20.813 11.7774L14.053 17.8264H14.052ZM19.312 8.00441H17.154L18.108 4.98141L19.311 8.00441H19.312Z" fill="black"/>
</svg>
