<?xml version="1.0" encoding="utf-8"?>
<!-- Generator: Adobe Illustrator 18.0.0, SVG Export Plug-In . SVG Version: 6.00 Build 0)  -->
<!DOCTYPE svg PUBLIC "-//W3C//DTD SVG 1.1//EN" "http://www.w3.org/Graphics/SVG/1.1/DTD/svg11.dtd">
<svg version="1.1" id="Calque_1" xmlns="http://www.w3.org/2000/svg" xmlns:xlink="http://www.w3.org/1999/xlink" x="0px" y="0px"
	 width="108px" height="108px" viewBox="0 0 108 108" style="enable-background:new 0 0 108 108;" xml:space="preserve">
<path style="fill:#86BC24;" d="M54.5,1C25.1,1,1.3,24.8,1.3,54.2c0,29.4,23.8,53.2,53.2,53.2c29.4,0,53.2-23.8,53.2-53.2V1H54.5z"/>
<path style="fill:#FFFFFF;" d="M22.5,62.6c-5.5,0-10-4.5-10-10c0-5.5,4.5-10,10-10c5.5,0,10,4.5,10,10
	C32.5,58.1,28.1,62.6,22.5,62.6 M34.1,42c-0.7,0-1.3,0.6-1.3,1.3v2.2c-2.4-3.4-6.2-5.4-10.3-5.4c-6.9,0-12.5,5.6-12.5,12.5
	s5.6,12.5,12.5,12.5c4.1,0,8-2,10.3-5.4v4.2c0,0.7,0.6,1.3,1.3,1.3c0.7,0,1.3-0.6,1.3-1.3V43.3C35.4,42.6,34.8,42,34.1,42z"/>
<path style="fill:#FFFFFF;" d="M83,62.6c-5.5,0-10-4.5-10-10c0-5.5,4.5-10,10-10c5.5,0,10,4.5,10,10C92.9,58.1,88.5,62.6,83,62.6
	 M94.5,42c-0.7,0-1.3,0.6-1.3,1.3v2.2c-2.3-3.4-6.2-5.4-10.3-5.4c-6.9,0-12.5,5.6-12.5,12.5S76.1,65.1,83,65.1c4.1,0,8-2,10.3-5.4
	v4.2c0,0.7,0.6,1.3,1.3,1.3s1.3-0.6,1.3-1.3V43.3C95.8,42.6,95.2,42,94.5,42z"/>
<path style="fill:#FFFFFF;" d="M56.6,62.6c-5.5,0-10-4.5-10-10c0-5.5,4.5-10,10-10c5.5,0,10,4.5,10,10
	C66.6,58.1,62.1,62.6,56.6,62.6 M56.6,40.1c-4.1,0-8,2-10.3,5.4v-2.2c0-0.7-0.6-1.3-1.3-1.3c-0.7,0-1.3,0.6-1.3,1.3v37.1
	c0,0.7,0.6,1.3,1.3,1.3c0.7,0,1.3-0.6,1.3-1.3V59.7c2.4,3.4,6.2,5.4,10.3,5.4c6.9,0,12.5-5.6,12.5-12.5
	C69.1,45.7,63.5,40.1,56.6,40.1z"/>
<path style="fill:#FFFFFF;" d="M50.6,38.2c0-0.7-0.6-1.3-1.3-1.3h-8.5v-2.7c0-4.7,2.5-4.9,2.8-4.9h5.7c0.7,0,1.3-0.6,1.3-1.3
	c0-0.7-0.5-1.2-1.1-1.3v0l-5.8,0c-0.2,0-5.3,0.1-5.3,7.4v2.7h-2.1c-0.7,0-1.3,0.6-1.3,1.3c0,0.7,0.6,1.3,1.3,1.3h2.1v24.4
	c0,0.7,0.6,1.3,1.3,1.3c0.7,0,1.3-0.6,1.3-1.3V39.5h8.5C50,39.5,50.6,38.9,50.6,38.2"/>
</svg>
